<svg width="772" height="248" viewBox="0 0 772 248" fill="none" xmlns="http://www.w3.org/2000/svg">
<g clip-path="url(#clip0_1087_14)">
<path d="M356.415 46.8408C367.77 46.439 381.91 46.6004 393.321 46.7909C392.946 59.0938 393.417 72.6322 393.277 85.0906C392.838 124.854 393.609 164.77 393.125 204.539C383.915 204.651 374.477 204.899 365.292 204.495C364.336 200.81 363.433 197.413 362.741 193.669C359.791 195.779 357.728 197.723 354.443 199.835C340.132 209.036 321.158 210.485 304.816 206.828C278.741 199.683 265.567 177.625 265.281 151.325C265.138 138.129 266.915 127.162 273.636 115.566C280.48 103.618 291.853 94.9343 305.182 91.4789C317.182 88.3191 331.708 88.5084 343.404 92.922C347.582 94.4985 351.637 96.9678 355.501 99.2209C355.999 82.1257 354.802 64.7361 355.594 47.6368C355.611 47.2558 356.094 47.0649 356.415 46.8408ZM333.975 176.036C367.578 170.444 360.429 117.129 325.603 122.324C308.802 125.238 301.442 140.032 304.274 155.861C307.234 172.408 319.091 176.755 333.975 176.036Z" fill="#25231E"/>
<path d="M61.4986 89.2368C93.4282 88.3145 117.552 104.368 122.001 137.482C124.005 152.389 122.417 168.46 115.132 181.835C108.814 193.536 98.0722 202.219 85.3069 205.944C75.3383 208.878 61.245 209.557 51.316 206.341C46.2806 204.711 42.0951 202.471 37.4663 199.947L37.5374 218.677C37.6073 228.178 37.5638 237.68 37.4068 247.179C33.9511 246.917 28.0729 247.098 24.4123 247.108L0.442297 247.165L0.416016 106.286C5.68545 107.548 8.94331 108.829 13.8827 110.976C24.3104 96.0198 44.1062 90.0185 61.4986 89.2368ZM62.242 175.989C68.865 175.351 74.4077 173.516 78.7533 168.132C87.5416 157.242 86.6342 136.142 75.3579 127.159C71.2715 123.904 64.9983 121.806 59.7588 122.37C53.6114 122.986 47.071 125.28 43.3525 130.406C30.8169 147.685 37.2235 177.257 62.242 175.989Z" fill="#25231E"/>
<path d="M187.989 90.4239C202.803 88.1072 223.284 94.4772 235.071 103.573C259.65 122.54 262.705 162.005 243.847 185.932C232.403 200.452 217.767 205.28 200.13 207.275C182.152 208.089 166.203 205.692 151.944 194.302C119.766 168.601 126.003 112.529 164.498 96.2574C173.253 92.5568 178.606 91.4508 187.989 90.4239ZM195.532 175.207C211.968 173.719 219.296 161.838 218.141 145.932C217.187 132.78 205.71 122.092 192.298 123.153C185.686 124.038 177.889 126.88 174.229 132.623C161.827 152.08 171.136 176.052 195.532 175.207Z" fill="#25231E"/>
<path d="M460.682 90.0191C486.824 86.8145 514.559 99.7302 521.601 126.509C524.744 138.468 524.113 147.993 524.037 160.206C514.172 160.777 501.243 160.457 491.249 160.397C475.96 160.272 460.67 160.32 445.381 160.543C446.463 162.871 447.713 165.632 449.435 167.529C463.206 182.705 489.723 177.153 506.387 172.124L511.488 183.212C513.425 187.127 515.246 191.096 516.955 195.116C504.414 203.239 495.767 205.202 481.084 207.048C445.145 211.567 410.188 195.393 406.577 155.753C403.362 120.429 424.779 93.3095 460.682 90.0191ZM445.237 137.775C453.001 138.156 461.92 137.966 469.781 137.961C475.245 137.989 481.028 138.115 486.468 137.982C483.321 126.533 476.435 120.656 463.997 121.96C453.704 123.257 448.396 128.063 445.237 137.775Z" fill="#25231E"/>
<path d="M679.969 88.8279C703.227 86.4286 728.845 95.8493 734.062 121.161C736.39 132.467 735.679 145.061 735.687 156.622L735.711 204.532C726.269 204.316 716.971 204.875 707.233 204.514C706.742 201.09 705.608 197.074 704.673 193.747C696.07 201.138 689.351 205.767 677.469 206.917C664.488 208.173 654.331 206.033 644.046 197.755C637.176 191.063 634.041 183.823 634.076 174.229C634.224 136.881 673.251 136.258 699.68 136.096C696.972 119.52 678.439 120.123 665.355 122.004C658.213 123.031 650.317 126.439 643.854 129.537C642.652 122.073 640.958 113.015 640.168 105.62C650.037 95.8825 666.285 90.0058 679.969 88.8279ZM683.093 180.767C696.944 178.485 699.716 171.797 699.796 158.802C695.574 158.543 689.867 158.445 685.637 158.738C680.792 159.004 673.894 159.803 670.982 163.908C663.242 174.822 673.119 181.13 683.093 180.767Z" fill="#25231E"/>
<path d="M586.064 93.2272C595.602 92.7731 612.525 92.9429 622.103 93.3567C621.607 99.8305 622.071 112.826 622.083 119.702L622.175 174.713C622.175 201.709 626.304 232.525 595.837 244.893C584.43 248.768 574.237 248.513 562.518 246.848L562.406 218.202C581.614 218.146 585.205 214.101 585.157 194.095C585.137 187.725 585.149 180.94 585.149 174.526L585.133 114.828C585.133 111.332 584.889 95.8798 585.281 93.7265L586.064 93.2272Z" fill="#25231E"/>
<path d="M600.614 42.4683C630.571 40.2371 636.282 77.8974 607.021 82.128C588.999 83.9658 575.599 69.3366 584.866 51.8271C587.757 46.3667 594.827 43.7385 600.614 42.4683Z" fill="#25231E"/>
<path d="M691.655 -0.296875C696.197 0.22107 705.591 5.47657 710.04 7.57218C713.312 9.11402 712.828 12.0154 711.394 14.8461C709.457 18.6772 707.041 22.4932 704.82 26.2447C699.292 35.6573 693.557 44.9448 687.613 54.1003C685.397 57.2473 683.639 57.5441 680.348 55.6361C677.181 53.7967 672.216 52.9596 670.163 49.61C668.913 43.4054 682.545 16.5213 684.773 8.96807C685.864 5.27279 687.577 0.757693 691.655 -0.296875Z" fill="#FC5535"/>
<path d="M742.414 26.7578C743.688 27.0586 744.766 27.3944 745.813 28.2213C747.978 29.9275 754.855 38.6682 756.605 41.2281C757.671 42.787 758.738 44.745 758.35 46.687C757.695 49.9814 723.737 71.6512 718.804 74.8665C717.95 75.4273 715.457 76.5357 714.415 77.0246C712.114 75.059 703.103 66.9864 705.017 63.93C711.571 53.4504 721.66 45.2566 730.383 36.6064C734.985 32.0404 736.147 28.9867 742.414 26.7578Z" fill="#FC5535"/>
<path d="M765.688 76.752C766.367 76.7791 767.162 77.1094 767.825 77.3375C770.477 79.7125 772.909 93.6167 771.048 94.7674C766.615 97.5127 748.086 98.824 742.969 99.4814C741.759 99.5581 741.228 99.5066 740.018 99.3728C737.717 97.6636 735.329 89.5929 736.85 86.7031C739.502 84.2255 761.039 77.8508 765.688 76.752Z" fill="#FC5535"/>
</g>
<defs>
<clipPath id="clip0_1087_14">
<rect width="772" height="248" fill="white"/>
</clipPath>
</defs>
</svg>
