<svg width="997" height="338" viewBox="0 0 997 338" fill="none" xmlns="http://www.w3.org/2000/svg">
<g clip-path="url(#clip0_192_163)">
<path d="M106.937 101.441C149.253 101.441 171.887 131.62 171.887 189.025C171.887 246.43 149.253 276.28 106.609 276.28C80.0389 276.28 62.9814 264.799 55.1088 238.885V334.669H0V104.721H48.2202L54.4527 139.492C62.6534 113.906 79.7109 101.441 106.937 101.441ZM86.9275 227.076C107.593 227.076 118.746 213.627 118.746 188.697C118.746 164.095 107.593 150.645 86.2714 150.645C69.214 150.645 57.733 159.502 55.1088 169.671V188.697C55.1088 213.627 66.5898 227.076 86.9275 227.076Z" fill="#171311"/>
<path d="M357.684 188.697C357.684 244.462 325.209 276.28 271.741 276.28C217.944 276.28 185.797 244.133 185.797 188.697C185.797 133.26 217.944 101.441 271.741 101.441C325.209 101.441 357.684 133.26 357.684 188.697ZM238.938 188.697C238.938 213.627 250.091 227.076 271.741 227.076C293.063 227.076 304.544 213.627 304.544 188.697C304.544 164.095 293.063 150.645 271.741 150.645C250.091 150.645 238.938 164.095 238.938 188.697Z" fill="#171311"/>
<path d="M488.693 138.836V47.6445H544.13V273H495.582L489.021 238.557C480.82 263.815 464.419 276.28 437.193 276.28C394.549 276.28 371.915 246.102 371.915 188.369C371.915 131.292 394.549 101.441 437.521 101.441C464.091 101.441 480.82 112.922 488.693 138.836ZM488.693 208.05V188.697C488.693 164.095 477.54 150.645 456.874 150.645C436.536 150.645 425.055 164.095 425.055 188.697C425.055 213.627 436.536 227.076 457.53 227.076C474.588 227.076 486.069 218.219 488.693 208.05Z" fill="#171311"/>
<path d="M707.301 153.27C707.301 189.681 679.746 206.738 612.501 208.05C617.749 221.5 628.902 228.388 645.959 228.388C663.017 228.388 678.106 223.14 692.868 210.347L703.364 257.583C684.339 271.36 668.265 276.28 638.743 276.28C588.555 276.28 557.392 243.477 557.392 186.729C557.392 131.948 589.211 101.441 642.679 101.441C684.339 101.441 707.301 120.139 707.301 153.27ZM609.22 187.057H612.501C642.351 187.057 658.097 177.872 658.097 162.782C658.097 151.63 649.896 147.037 639.071 147.037C619.717 147.037 609.548 160.486 609.22 187.057Z" fill="#171311"/>
<path d="M691.92 333.701L687 286.793C691.92 288.761 698.153 289.745 703.729 289.745C710.618 289.745 716.523 288.433 721.443 286.136V105.721H776.88V256.286C776.88 315.003 760.478 338.949 720.459 338.949C709.306 338.949 698.809 336.981 691.92 333.701ZM749.653 96.5362C727.347 96.5362 716.195 86.3673 716.195 65.0454C716.195 44.0516 727.347 33.5547 749.653 33.5547C770.975 33.5547 782.128 44.0516 782.128 65.0454C782.128 86.3673 770.975 96.5362 749.653 96.5362Z" fill="url(#paint0_linear_192_163)"/>
<path d="M792.238 233.98C792.238 198.553 823.401 177.231 877.854 174.607C873.917 161.814 865.06 156.237 849.971 156.237C835.21 156.237 820.777 161.486 806.999 174.607L796.503 121.138C820.777 107.361 840.458 102.441 863.42 102.441C914.265 102.441 935.587 127.699 935.587 184.12V221.187C938.211 222.171 940.835 222.827 943.787 222.827C947.396 222.827 951.66 221.843 956.58 219.875L946.411 271.703C939.195 275.64 930.994 277.28 922.793 277.28C903.112 277.28 889.991 267.767 884.086 250.381C873.261 268.095 857.188 277.28 837.178 277.28C809.624 277.28 792.238 260.55 792.238 233.98ZM880.15 225.123V191.664C861.124 192.32 848.659 202.489 848.659 220.203C848.659 232.996 855.876 237.916 865.06 237.916C871.293 237.916 875.885 235.62 880.478 231.356C880.478 229.06 880.15 227.091 880.15 225.123Z" fill="url(#paint1_linear_192_163)"/>
<path d="M902.935 16.2277C904.703 11.9282 909.75 10.0358 913.909 12.1135L929.818 20.0613C933.976 22.139 935.495 27.3116 933.118 31.3071L901.454 84.5496C900.115 86.8011 897.266 87.6375 894.922 86.4668L881.766 79.8941C879.423 78.7234 878.38 75.9425 879.377 73.5198L902.935 16.2277Z" fill="url(#paint2_linear_192_163)"/>
<path d="M967.801 44.6773C971.042 41.345 976.431 41.4677 979.518 44.9441L991.324 58.2431C994.411 61.7195 993.894 67.0855 990.201 69.9093L940.993 107.538C938.912 109.129 935.956 108.844 934.216 106.885L924.453 95.8876C922.714 93.9286 922.781 90.9595 924.608 89.0818L967.801 44.6773Z" fill="url(#paint3_linear_192_163)"/>
<path d="M979.518 115.277C983.942 113.865 988.494 115.729 989.414 119.328L992.935 133.098C993.855 136.697 990.756 140.516 986.197 141.402L954.509 145.767C951.941 146.266 949.551 145.082 949.033 143.054L946.121 131.667C945.603 129.639 947.13 127.453 949.623 126.658L979.518 115.277Z" fill="url(#paint4_linear_192_163)"/>
</g>
<defs>
<linearGradient id="paint0_linear_192_163" x1="686.558" y1="338.949" x2="1005.22" y2="5.21086" gradientUnits="userSpaceOnUse">
<stop stop-color="#F26941"/>
<stop offset="1" stop-color="#FECA28"/>
</linearGradient>
<linearGradient id="paint1_linear_192_163" x1="686.558" y1="338.949" x2="1005.22" y2="5.21086" gradientUnits="userSpaceOnUse">
<stop stop-color="#F26941"/>
<stop offset="1" stop-color="#FECA28"/>
</linearGradient>
<linearGradient id="paint2_linear_192_163" x1="686.558" y1="338.949" x2="1005.22" y2="5.21086" gradientUnits="userSpaceOnUse">
<stop stop-color="#F26941"/>
<stop offset="1" stop-color="#FECA28"/>
</linearGradient>
<linearGradient id="paint3_linear_192_163" x1="686.558" y1="338.949" x2="1005.22" y2="5.21086" gradientUnits="userSpaceOnUse">
<stop stop-color="#F26941"/>
<stop offset="1" stop-color="#FECA28"/>
</linearGradient>
<linearGradient id="paint4_linear_192_163" x1="686.558" y1="338.949" x2="1005.22" y2="5.21086" gradientUnits="userSpaceOnUse">
<stop stop-color="#F26941"/>
<stop offset="1" stop-color="#FECA28"/>
</linearGradient>
<clipPath id="clip0_192_163">
<rect width="997" height="338" fill="white"/>
</clipPath>
</defs>
</svg>
