<svg width="300" height="300" viewBox="0 0 300 300" fill="none" xmlns="http://www.w3.org/2000/svg">
<rect width="300" height="300" rx="56" fill="#FC5535"/>
<path d="M160.305 121.247C179.497 119.268 200.636 127.041 204.94 147.927C206.862 157.257 206.275 167.649 206.282 177.188L206.302 216.722C198.51 216.543 190.838 217.005 182.802 216.707C182.397 213.882 181.461 210.568 180.69 207.823C173.591 213.922 168.047 217.741 158.242 218.69C147.531 219.726 139.149 217.96 130.663 211.13C124.994 205.608 122.407 199.634 122.436 191.717C122.558 160.899 154.762 160.385 176.57 160.251C174.335 146.573 159.043 147.071 148.246 148.623C142.353 149.47 135.837 152.282 130.504 154.839C129.512 148.68 128.115 141.206 127.462 135.104C135.606 127.069 149.014 122.219 160.305 121.247ZM162.883 197.112C174.312 195.229 176.6 189.71 176.666 178.987C173.182 178.774 168.472 178.692 164.982 178.934C160.984 179.154 155.292 179.813 152.89 183.201C146.502 192.206 154.653 197.412 162.883 197.112Z" fill="white"/>
<path d="M82.8179 124.878C90.6883 124.503 104.653 124.643 112.556 124.984C112.147 130.326 112.53 141.049 112.54 146.723L112.615 192.116C112.615 214.393 116.023 239.82 90.8828 250.026C81.47 253.224 73.0591 253.014 63.3892 251.639L63.2969 228.002C79.1464 227.955 82.1093 224.618 82.0698 208.109C82.0533 202.854 82.0632 197.255 82.0632 191.962L82.05 142.701C82.05 139.817 81.849 127.066 82.172 125.29L82.8179 124.878Z" fill="white"/>
<path d="M94.8248 82.9932C119.543 81.1522 124.256 112.228 100.111 115.719C85.2406 117.235 74.1831 105.164 81.8294 90.7158C84.2156 86.21 90.0492 84.0413 94.8248 82.9932Z" fill="white"/>
<path d="M169.948 47.7051C173.696 48.1325 181.447 52.4691 185.119 54.1983C187.818 55.4706 187.419 57.8647 186.236 60.2005C184.638 63.3617 182.644 66.5106 180.811 69.6061C176.25 77.373 171.517 85.0367 166.613 92.5915C164.784 95.1883 163.333 95.4332 160.618 93.8588C158.004 92.341 153.907 91.6502 152.213 88.8863C151.182 83.7665 162.43 61.5828 164.27 55.3502C165.169 52.3009 166.583 48.5753 169.948 47.7051Z" fill="white"/>
<path d="M211.832 70.0296C212.883 70.2777 213.773 70.5548 214.637 71.2371C216.423 72.6451 222.098 79.8575 223.542 81.9699C224.422 83.2562 225.302 84.8719 224.982 86.4743C224.442 89.1927 196.421 107.074 192.35 109.727C191.645 110.19 189.589 111.104 188.728 111.508C186.83 109.886 179.395 103.225 180.973 100.703C186.382 92.0552 194.707 85.2941 201.905 78.1562C205.702 74.3885 206.661 71.8687 211.832 70.0296Z" fill="white"/>
<path d="M231.037 111.283C231.597 111.305 232.253 111.578 232.8 111.766C234.989 113.726 236.996 125.199 235.46 126.148C231.802 128.414 216.512 129.496 212.29 130.038C211.292 130.102 210.853 130.059 209.855 129.949C207.956 128.538 205.986 121.879 207.241 119.494C209.43 117.45 227.201 112.189 231.037 111.283Z" fill="white"/>
</svg>
