<svg width="300" height="300" viewBox="0 0 300 300" fill="none" xmlns="http://www.w3.org/2000/svg">
<rect width="300" height="300" rx="56" fill="url(#paint0_linear_192_166)"/>
<path d="M65.8108 241.005L63 214.236C65.8108 215.359 69.3712 215.92 72.5568 215.92C76.492 215.92 79.865 215.172 82.6758 213.861V110.902H114.344V196.826C114.344 230.335 104.975 244 82.1136 244C75.7424 244 69.746 242.877 65.8108 241.005ZM98.7912 105.661C86.0488 105.661 79.6776 99.8576 79.6776 87.6897C79.6776 75.7091 86.0488 69.7187 98.7912 69.7187C110.971 69.7187 117.343 75.7091 117.343 87.6897C117.343 99.8576 110.971 105.661 98.7912 105.661Z" fill="white"/>
<path d="M123.118 184.097C123.118 163.879 140.92 151.711 172.026 150.214C169.778 142.913 164.718 139.731 156.098 139.731C147.666 139.731 139.421 142.726 131.55 150.214L125.554 119.701C139.421 111.838 150.664 109.03 163.781 109.03C192.827 109.03 205.007 123.445 205.007 155.643V176.796C206.506 177.358 208.005 177.732 209.691 177.732C211.753 177.732 214.189 177.17 217 176.047L211.191 205.624C207.068 207.871 202.383 208.807 197.699 208.807C186.455 208.807 178.96 203.378 175.587 193.457C169.403 203.565 160.221 208.807 148.79 208.807C133.05 208.807 123.118 199.26 123.118 184.097ZM173.338 179.042V159.948C162.47 160.323 155.349 166.126 155.349 176.234C155.349 183.535 159.471 186.343 164.718 186.343C168.279 186.343 170.902 185.033 173.526 182.599C173.526 181.289 173.338 180.166 173.338 179.042Z" fill="white"/>
<path d="M186.354 59.8306C187.364 57.377 190.248 56.2971 192.623 57.4827L201.711 62.0184C204.087 63.204 204.954 66.1559 203.597 68.4361L185.509 98.8203C184.744 100.105 183.116 100.582 181.777 99.9144L174.262 96.1635C172.923 95.4954 172.327 93.9085 172.896 92.5259L186.354 59.8306Z" fill="white"/>
<path d="M223.409 76.0661C225.261 74.1645 228.34 74.2345 230.103 76.2184L236.847 83.8078C238.61 85.7917 238.315 88.854 236.206 90.4654L208.095 111.939C206.906 112.847 205.218 112.685 204.224 111.567L198.647 105.291C197.653 104.173 197.692 102.478 198.735 101.407L223.409 76.0661Z" fill="white"/>
<path d="M230.103 116.356C232.63 115.55 235.23 116.613 235.756 118.668L237.767 126.525C238.293 128.58 236.523 130.759 233.919 131.264L215.817 133.755C214.349 134.04 212.984 133.365 212.688 132.207L211.025 125.709C210.728 124.552 211.601 123.304 213.025 122.851L230.103 116.356Z" fill="white"/>
<defs>
<linearGradient id="paint0_linear_192_166" x1="-0.433752" y1="300" x2="278.724" y2="-24.4573" gradientUnits="userSpaceOnUse">
<stop offset="0.173796" stop-color="#F26941"/>
<stop offset="1" stop-color="#FECA28"/>
</linearGradient>
</defs>
</svg>
